<?xml version="1.0" standalone="no"?>
<!DOCTYPE svg PUBLIC "-//W3C//DTD SVG 20010904//EN"
 "http://www.w3.org/TR/2001/REC-SVG-20010904/DTD/svg10.dtd">
<svg version="1.0" xmlns="http://www.w3.org/2000/svg"
 width="150.000000pt" height="150.000000pt" viewBox="0 0 150.000000 150.000000"
 preserveAspectRatio="xMidYMid meet">

<g transform="translate(0.000000,150.000000) scale(0.100000,-0.100000)"
fill="#000000" stroke="none">
<path d="M540 745 l0 -75 45 0 c25 0 45 5 45 10 0 6 -16 10 -35 10 l-35 0 0
65 c0 37 -4 65 -10 65 -6 0 -10 -32 -10 -75z"/>
<path d="M640 746 c0 -44 4 -76 10 -76 6 0 10 26 11 58 l1 57 20 -57 c11 -32
26 -58 33 -58 7 0 22 26 33 58 l20 57 1 -57 c1 -32 6 -58 11 -58 6 0 10 32 10
76 0 65 -2 75 -17 72 -9 -2 -25 -27 -37 -60 l-22 -57 -20 57 c-12 34 -27 58
-37 60 -15 3 -17 -7 -17 -72z"/>
<path d="M840 805 c-21 -25 -7 -49 38 -65 47 -16 55 -36 17 -46 -17 -4 -32 -1
-44 10 -22 20 -31 20 -31 1 0 -32 86 -49 110 -20 20 24 4 64 -28 71 -44 9 -52
13 -52 23 0 16 38 23 60 11 26 -14 37 -6 20 15 -16 19 -74 20 -90 0z"/>
</g>
</svg>
