<?xml version="1.0" standalone="no"?>
<!DOCTYPE svg PUBLIC "-//W3C//DTD SVG 20010904//EN"
 "http://www.w3.org/TR/2001/REC-SVG-20010904/DTD/svg10.dtd">
<svg version="1.0" xmlns="http://www.w3.org/2000/svg"
 width="150.000000pt" height="150.000000pt" viewBox="0 0 150.000000 150.000000"
 preserveAspectRatio="xMidYMid meet">

<g transform="translate(0.000000,150.000000) scale(0.100000,-0.100000)"
fill="#000000" stroke="none">
<path d="M340 755 l0 -155 100 0 c93 0 100 1 100 20 0 18 -7 20 -80 20 l-80 0
0 135 c0 128 -1 135 -20 135 -19 0 -20 -7 -20 -155z"/>
<path d="M570 755 c0 -148 1 -155 20 -155 18 0 20 8 22 123 l3 122 35 -122
c35 -122 35 -123 65 -123 30 0 30 1 65 123 l35 122 3 -122 c2 -115 4 -123 22
-123 19 0 20 7 20 155 l0 155 -35 0 -34 0 -25 -82 c-14 -46 -30 -103 -37 -127
l-13 -44 -12 39 c-7 21 -24 78 -39 127 l-26 87 -34 0 -35 0 0 -155z"/>
<path d="M965 898 c-31 -18 -44 -40 -45 -75 0 -40 26 -59 117 -84 92 -26 108
-55 46 -88 -44 -23 -115 -1 -126 39 -3 12 -13 20 -26 20 -31 0 -27 -33 8 -72
28 -31 33 -33 101 -33 66 0 74 2 96 28 25 30 31 66 14 97 -10 18 -60 41 -136
60 -52 13 -64 38 -32 63 30 25 97 17 117 -12 15 -24 51 -28 51 -7 0 8 -11 27
-23 42 -20 23 -33 28 -83 31 -35 2 -67 -1 -79 -9z"/>
</g>
</svg>
